<svg xmlns="http://www.w3.org/2000/svg" xmlns:xlink="http://www.w3.org/1999/xlink" width="500" zoomAndPan="magnify" viewBox="0 0 375 374.999991" height="500" preserveAspectRatio="xMidYMid meet" version="1.0"><defs><clipPath id="ebd2093d73"><path d="M 232 0 L 345.796875 0 L 345.796875 180 L 232 180 Z M 232 0 " clip-rule="nonzero"/></clipPath><clipPath id="88ddb9a973"><path d="M 231 0 L 345.796875 0 L 345.796875 180 L 231 180 Z M 231 0 " clip-rule="nonzero"/></clipPath></defs><path stroke-linecap="butt" transform="matrix(0.052015, 0, 0, -0.052015, -78.52967, 451.829202)" fill-opacity="1" fill="#970c10" fill-rule="nonzero" stroke-linejoin="miter" d="M 2176.02613 8635.982098 C 2221.01018 8612.025651 2285.970453 8572.974388 2320.966392 8549.017941 C 2382.997821 8508.014115 2540.028955 8363.975036 2540.028955 8349.030418 C 2540.028955 8344.975095 2521.029014 8352.034361 2497.973749 8365.026416 C 2427.00559 8404.00258 2279.962567 8457.022178 2192.022128 8474.970739 C 2104.00659 8492.994399 2072.990876 8489.990456 2136.974868 8470.014233 C 2202.010239 8448.98663 2357.989993 8362.998754 2440.973926 8302.994988 C 2484.005413 8271.002992 2519.001352 8242.014939 2519.977633 8239.010996 C 2519.977633 8236.007053 2493.993524 8242.014939 2462.97781 8252.979332 C 2420.021421 8267.022767 2370.982048 8274.006935 2275.00606 8277.010878 L 2145.010416 8280.014822 L 2230.02201 8255.006994 C 2357.989993 8216.03083 2440.973926 8178.030948 2534.021068 8115.999519 C 2681.965274 8017.019589 2788.980753 7881.016058 2825.028072 7745.012527 C 2845.980576 7662.028594 2844.028013 7625.981275 2813.98858 7577.993281 C 2750.004589 7478.037069 2693.004765 7302.005994 2664.992994 7124.998637 C 2651.024658 7039.010761 2648.996997 6976.979333 2652.977221 6839.99952 C 2658.985108 6630.023886 2683.992936 6501.004523 2765.024305 6250.025064 C 2847.031956 5997.017942 2852.964744 5969.006171 2852.964744 5839.986808 C 2852.964744 5690.991222 2826.980635 5602.975685 2719.965156 5380.007996 C 2651.024658 5237.996578 2645.016772 5219.972919 2673.028543 5250.988633 C 2690.000822 5270.964856 2785.976809 5379.031715 2886.00812 5491.0037 C 3142.995466 5782.010703 3307.010768 5931.982571 3519.990346 6074.97027 C 3611.986108 6136.025417 3810.997349 6240.036952 3838.032838 6240.036952 C 3845.993288 6240.036952 3816.028954 6197.981746 3772.997467 6147.966091 C 3728.989698 6096.974154 3690.013534 6048.986161 3684.981929 6041.025711 C 3674.993818 6023.002051 3674.017536 6023.002051 3832.024952 6126.037305 C 4047.032191 6267.973625 4215.027718 6449.036305 4254.980163 6583.012174 C 4263.015711 6611.023945 4269.99988 6663.968445 4269.99988 6700.015764 C 4269.99988 6802.97592 4225.992111 6883.031007 4107.035958 6997.030654 C 3896.985225 7197.018177 3437.982694 7508.977685 3167.027012 7634.016823 C 3113.031132 7660.000932 3066.995702 7688.012703 3060.011533 7700.028476 C 3054.003647 7710.992869 3031.023481 7771.972917 3009.019597 7836.032007 C 2966.964391 7957.992104 2898.023893 8103.983746 2847.031956 8179.983511 C 2784.024246 8274.006935 2674.004824 8394.99075 2595.977398 8455.970798 C 2497.973749 8533.998224 2354.98605 8609.021707 2240.010121 8642.966266 C 2098.974985 8685.021472 2088.986874 8683.970092 2176.02613 8635.982098 Z M 3155.011239 7380.03342 C 3269.987168 7292.994164 3446.018243 7134.986749 3532.006119 7039.987043 C 3569.029719 6998.983217 3598.017772 6964.96356 3596.966392 6963.987278 C 3595.99011 6962.034715 3563.021833 6969.995165 3525.02195 6981.034656 C 3440.010356 7004.991104 3263.002999 7019.034539 3273.967392 7001.987161 C 3278.022716 6995.002993 3287.034546 6989.971388 3292.967333 6989.971388 C 3329.990934 6989.971388 3510.978516 6888.963795 3613.037488 6811.987749 C 3674.017536 6766.027417 3681.001704 6751.983983 3636.993936 6769.031361 C 3608.005883 6779.995754 3399.982812 6802.97592 3392.998644 6795.991751 C 3390.970982 6793.96409 3418.982753 6782.023415 3456.982636 6770.007642 C 3494.006236 6757.015588 3542.970511 6738.015646 3564.974396 6728.027535 C 3615.966333 6701.968327 3719.977868 6637.008054 3719.977868 6628.972506 C 3719.977868 6625.968563 3696.021421 6627.019943 3668.00965 6631.000168 C 3639.021597 6634.980393 3583.974337 6634.980393 3545.974455 6631.976449 L 3478.010238 6627.019943 L 3531.029837 6609.972565 C 3611.009826 6586.016117 3725.009473 6523.008407 3781.033015 6472.016471 C 3807.993406 6447.984924 3829.99729 6425.004759 3829.99729 6421.024534 C 3829.99729 6416.96921 3797.029013 6403.000874 3757.97775 6390.985101 C 3607.029602 6342.020826 3427.018302 6245.96974 3311.967275 6152.021415 C 3282.002941 6127.989868 3256.018831 6111.017589 3253.014888 6114.021532 C 3243.026777 6124.009644 3316.99888 6263.017118 3355.975043 6308.001168 L 3392.998644 6352.008937 L 3339.002764 6324.973448 C 3308.963331 6310.02883 3263.979281 6279.989398 3237.995172 6259.036893 C 3212.011063 6238.00929 3189.030897 6219.985631 3186.026953 6219.985631 C 3174.987462 6219.985631 3212.987344 6304.997225 3247.007002 6356.965444 C 3266.006943 6386.028595 3307.010768 6432.965208 3338.026482 6460.976979 C 3380.006589 6500.028242 3387.967039 6510.992634 3370.018478 6504.984748 C 3323.983048 6491.016412 3240.999115 6449.036305 3190.98346 6415.016647 L 3140.967804 6380.99699 L 3159.967746 6434.016588 C 3183.02301 6501.004523 3203.975514 6542.98463 3244.003058 6599.984454 C 3295.971277 6672.980275 3295.971277 6675.007937 3249.034663 6649.023827 C 3225.003117 6636.031773 3170.030955 6589.996342 3126.023187 6546.964855 L 3047.99576 6469.012527 L 3054.979929 6542.008349 C 3063.015477 6634.980393 3088.023304 6764.976037 3105.971865 6808.983806 C 3118.96392 6839.023239 3118.96392 6840.975802 3104.019302 6829.035127 C 3080.964038 6810.035186 3018.031426 6715.035481 2985.964332 6652.027771 C 2971.019714 6621.988338 2956.97628 6599.984454 2955.023716 6602.012115 C 2952.996055 6603.964678 2946.011887 6653.004052 2940.004 6710.980157 C 2927.988227 6827.983747 2940.004 7014.979215 2965.011828 7109.978921 C 2972.972277 7140.018354 2978.003882 7166.002463 2975.976221 7168.030124 C 2962.984166 7179.970799 2855.968687 6970.971446 2844.028013 6910.96768 C 2839.97269 6893.9954 2832.988521 6877.023121 2826.980635 6872.967798 C 2820.972748 6868.987573 2819.020185 6915.999285 2822.024129 7010.99899 C 2826.980635 7127.026299 2832.988521 7172.010349 2854.016124 7242.978509 C 2877.972572 7324.009878 2921.980341 7422.989809 2958.02766 7478.037069 L 2972.972277 7499.965855 L 3019.007708 7473.981746 C 3044.015536 7459.037128 3105.971865 7416.981922 3155.011239 7380.03342 Z M 3155.011239 7380.03342 " stroke="#1c1c1c" stroke-width="1" stroke-opacity="1" stroke-miterlimit="4"/><g clip-path="url(#ebd2093d73)"><path fill="#970c10" d="M 339.460938 1.640625 C 336.914062 2.316406 332.597656 3.929688 329.890625 5.28125 C 314.652344 12.613281 304.144531 25.566406 297.226562 45.488281 C 295.976562 49.128906 294.730469 52.199219 294.523438 52.40625 C 294.3125 52.613281 292.648438 53.394531 290.777344 54.175781 C 276.265625 60.15625 244.273438 82.523438 236.523438 92.144531 C 228.671875 101.925781 231.167969 112.953125 244.015625 124.863281 C 247.605469 128.140625 262.117188 138.386719 262.585938 137.972656 C 262.6875 137.816406 260.867188 135.472656 258.527344 132.71875 C 256.1875 129.960938 254.367188 127.621094 254.523438 127.464844 C 254.992188 126.945312 265.496094 132.195312 270.125 135.214844 C 281.675781 142.808594 291.402344 151.753906 305.914062 168.191406 C 311.011719 173.964844 315.433594 178.800781 315.691406 179.011719 C 316.003906 179.167969 314.859375 176.515625 313.144531 173.132812 C 307.628906 162.054688 305.859375 155.863281 305.859375 147.800781 C 305.859375 142.289062 306.796875 137.660156 309.503906 129.597656 C 314.753906 114.148438 316.523438 103.589844 316.109375 90.585938 C 315.691406 77.632812 313.871094 69.882812 308.878906 59.742188 L 306.277344 54.382812 L 306.902344 50.949219 C 309.347656 38.101562 322.351562 26.398438 338.890625 22.082031 L 342.53125 21.144531 L 335.769531 21.351562 C 330.828125 21.507812 328.125 21.820312 325.78125 22.601562 C 323.960938 23.175781 322.503906 23.589844 322.503906 23.484375 C 322.503906 23.433594 324.480469 21.925781 326.875 20.15625 C 331.816406 16.566406 337.851562 13.1875 342.53125 11.417969 L 345.652344 10.171875 L 343.050781 10.480469 C 338.214844 11.105469 332.128906 12.875 327.238281 15.214844 C 324.535156 16.464844 322.246094 17.398438 322.089844 17.246094 C 321.933594 17.089844 323.546875 15.320312 325.679688 13.238281 C 329.734375 9.339844 336.03125 4.917969 341.75 2.054688 C 345.703125 0.0273438 345.546875 0.0273438 339.460938 1.640625 Z M 301.542969 64.941406 C 305.808594 72.066406 308.304688 83.40625 307.472656 91.625 L 307.109375 94.746094 L 306.433594 92.40625 C 305.546875 89.285156 302.117188 82.160156 300.398438 79.921875 L 298.996094 78.101562 L 299.359375 79.664062 C 300.867188 86.058594 301.285156 89.753906 301.285156 96.566406 C 301.285156 100.726562 301.074219 105.148438 300.816406 106.449219 L 300.347656 108.789062 L 298.839844 105.929688 C 297.070312 102.445312 293.792969 97.554688 292.597656 96.566406 C 291.765625 95.890625 291.765625 95.941406 292.546875 97.761719 C 294 101.300781 296.1875 115.292969 295.300781 115.292969 C 295.144531 115.292969 293.742188 113.992188 292.234375 112.328125 C 289.527344 109.464844 283.804688 104.890625 282.921875 104.890625 C 282.664062 104.890625 283.339844 105.980469 284.378906 107.335938 C 286.355469 109.933594 289.425781 116.074219 290.046875 118.570312 L 290.414062 120.078125 L 287.757812 118.207031 C 285.523438 116.539062 278.917969 113.210938 277.980469 113.210938 C 277.773438 113.210938 279.230469 114.929688 281.207031 116.957031 C 284.898438 120.859375 287.34375 124.445312 287.96875 126.945312 L 288.332031 128.398438 L 285.523438 126.265625 C 284.015625 125.125 281.621094 123.5625 280.269531 122.835938 L 277.773438 121.480469 L 280.21875 124.757812 C 282.921875 128.296875 285.472656 133.289062 284.898438 133.863281 C 284.691406 134.019531 283.859375 133.601562 283.078125 132.875 C 278.449219 128.503906 266.433594 121.847656 258.683594 119.347656 C 256.601562 118.726562 254.886719 117.996094 254.886719 117.789062 C 254.886719 117.632812 256.132812 116.332031 257.695312 114.929688 C 260.710938 112.277344 264.613281 110.039062 269.710938 108.21875 L 272.832031 107.074219 L 270.855469 106.710938 C 269.761719 106.5 266.953125 106.449219 264.613281 106.65625 L 260.347656 107.023438 L 263.207031 105.097656 C 266.589844 102.859375 272.675781 100 275.640625 99.167969 C 276.835938 98.855469 277.773438 98.492188 277.773438 98.335938 C 277.773438 97.867188 268.929688 98.699219 266.070312 99.429688 C 264.664062 99.84375 263.417969 100.050781 263.3125 100 C 263.050781 99.738281 267.527344 96.253906 270.648438 94.277344 C 274.234375 91.9375 281.828125 88.246094 282.921875 88.246094 C 283.546875 88.246094 283.546875 88.089844 283.078125 87.621094 C 282.296875 86.839844 272.882812 87.777344 269.398438 88.972656 C 268.148438 89.390625 267.003906 89.648438 266.902344 89.492188 C 266.484375 89.078125 279.851562 76.125 285.574219 71.339844 C 290.933594 66.867188 297.851562 62.238281 299.097656 62.238281 C 299.566406 62.238281 300.660156 63.484375 301.542969 64.941406 Z M 301.542969 64.941406 " fill-opacity="1" fill-rule="nonzero"/></g><g clip-path="url(#88ddb9a973)"><path stroke-linecap="butt" transform="matrix(0.052015, 0, 0, -0.052015, -78.52967, 451.829202)" fill="none" stroke-linejoin="miter" d="M 8035.968449 8654.982039 C 7987.004174 8641.989985 7904.020241 8610.974271 7851.976924 8584.990161 C 7559.017357 8444.030124 7357.002173 8195.003227 7224.002585 7812.000461 C 7199.971039 7742.008583 7176.014592 7682.981098 7172.034367 7679.000873 C 7167.979043 7675.020649 7135.987048 7660.000932 7100.014827 7644.981216 C 6821.023596 7530.005288 6205.966214 7099.99081 6056.970628 6915.023003 C 5906.022479 6726.976155 5954.010472 6514.972859 6201.009707 6285.997284 C 6270.025304 6222.989574 6549.016534 6026.005995 6558.028364 6033.966444 C 6559.980927 6036.970388 6524.984988 6082.029537 6480.000938 6134.974037 C 6435.016887 6187.993635 6400.020948 6232.977685 6403.024892 6235.981629 C 6412.036721 6245.96974 6613.976807 6145.037246 6702.968626 6086.986043 C 6925.035132 5940.9944 7112.0306 5769.018649 7391.021831 5453.003817 C 7489.025479 5342.008114 7574.037074 5249.03607 7578.99358 5244.980747 C 7585.001467 5241.976803 7562.997582 5292.96874 7530.029305 5358.004112 C 7423.990108 5570.983689 7389.97045 5690.014941 7389.97045 5845.018413 C 7389.97045 5950.982512 7407.99411 6039.974331 7460.037427 6194.977803 C 7560.969921 6491.992693 7594.989578 6694.984159 7587.029128 6944.987337 C 7578.99358 7194.014234 7543.997641 7343.00982 7448.021654 7537.965737 L 7398.005999 7641.000991 L 7410.021772 7707.012644 C 7457.033484 7954.011879 7707.036662 8179.007229 8025.004056 8261.991162 L 8094.995934 8280.014822 L 7965.000289 8276.034597 C 7870.000584 8273.030654 7818.032365 8267.022767 7772.973216 8252.003051 C 7737.977277 8240.963559 7709.965506 8233.00311 7709.965506 8235.030771 C 7709.965506 8236.007053 7747.965389 8264.995105 7794.000819 8299.014763 C 7889.000525 8368.030359 8005.027833 8432.990632 8094.995934 8467.01029 L 8154.999701 8490.966737 L 8104.984045 8485.033949 C 8012.012001 8473.018176 7895.008411 8438.998519 7800.984987 8394.014468 C 7749.016769 8369.982922 7705.009 8352.034361 7702.005057 8354.963206 C 7699.001113 8357.967149 7730.016828 8391.986807 7771.020653 8432.014351 C 7848.972981 8506.962735 7970.031894 8591.974329 8079.976218 8647.02159 C 8155.975982 8685.997754 8152.972039 8685.997754 8035.968449 8654.982039 Z M 7306.986518 7438.009525 C 7388.994169 7301.029712 7436.982162 7083.01853 7420.986165 6925.011115 L 7414.001996 6865.007348 L 7401.009942 6909.991398 C 7383.962564 6969.995165 7318.026009 7106.974978 7284.982633 7150.006465 L 7258.022243 7185.002404 L 7265.006411 7154.962971 C 7293.994463 7032.026593 7302.030011 6960.983335 7302.030011 6830.011409 C 7302.030011 6750.03142 7297.974688 6665.019825 7293.018182 6640.011998 L 7284.006352 6595.027947 L 7255.018299 6650.000109 C 7220.998642 6716.988044 7157.990932 6811.011468 7135.010766 6830.011409 C 7119.014768 6843.003463 7119.014768 6842.027182 7134.034484 6807.031243 C 7161.971157 6738.991928 7204.026362 6469.988809 7186.978984 6469.988809 C 7183.975041 6469.988809 7157.01465 6494.996637 7128.026598 6526.988632 C 7075.983281 6582.035893 6965.963859 6669.976332 6948.991579 6669.976332 C 6944.035073 6669.976332 6957.027128 6649.023827 6977.00335 6622.96462 C 7015.003233 6573.024063 7074.030718 6454.969093 7085.971392 6406.981099 L 7093.030659 6377.993046 L 7041.963623 6413.965267 C 6999.007235 6446.032361 6872.015533 6510.016353 6853.991874 6510.016353 C 6850.011649 6510.016353 6878.02342 6476.972977 6916.023302 6437.996813 C 6986.991462 6362.97333 7034.003174 6294.032832 7046.018947 6245.96974 L 7053.003115 6218.033068 L 6999.007235 6259.036893 C 6970.019182 6280.965679 6923.983752 6311.005112 6897.999643 6324.973448 L 6850.011649 6351.032656 L 6897.023361 6288.024946 C 6948.991579 6219.985631 6998.030953 6124.009644 6986.991462 6112.970152 C 6983.011237 6109.966209 6967.015239 6118.001757 6951.995523 6131.970093 C 6863.003704 6216.005406 6632.000467 6343.973389 6483.004881 6392.036481 C 6442.977337 6403.977156 6410.00906 6418.02059 6410.00906 6422.000815 C 6410.00906 6425.004759 6433.965507 6450.012586 6464.00494 6476.972977 C 6521.981045 6527.964914 6597.004528 6570.996401 6695.008177 6605.99234 L 6755.011943 6627.996224 L 6717.012061 6634.980393 C 6695.984458 6639.035716 6641.988578 6640.011998 6597.004528 6636.031773 L 6514.996877 6628.972506 L 6569.969038 6665.996107 C 6635.00441 6709.027594 6752.008 6763.999756 6809.007823 6779.995754 C 6831.987989 6786.00364 6850.011649 6792.987808 6850.011649 6795.991751 C 6850.011649 6805.003581 6679.98846 6789.007583 6625.016299 6774.964149 C 6597.980809 6767.003699 6574.024362 6763.023474 6571.9967 6763.999756 C 6566.965095 6769.031361 6653.02807 6836.019295 6713.031836 6874.019178 C 6781.972334 6919.003228 6927.963977 6989.971388 6948.991579 6989.971388 C 6961.007353 6989.971388 6961.007353 6992.975331 6951.995523 7001.987161 C 6936.975806 7017.006877 6755.988225 6998.983217 6689.00029 6976.003051 C 6664.968744 6967.967503 6642.96486 6963.010997 6641.012296 6966.01494 C 6632.976748 6973.97539 6889.964094 7223.002286 6999.983516 7314.998049 C 7103.01877 7400.985924 7236.018358 7489.977744 7259.974806 7489.977744 C 7268.986635 7489.977744 7290.014238 7466.021296 7306.986518 7438.009525 Z M 7306.986518 7438.009525 " stroke="#1c1c1c" stroke-width="1" stroke-opacity="1" stroke-miterlimit="4"/></g><path stroke-linecap="butt" transform="matrix(0.052015, 0, 0, -0.052015, -78.52967, 451.829202)" fill-opacity="1" fill="#ffdb15" fill-rule="nonzero" stroke-linejoin="miter" d="M 4409.983636 6950.018942 L 4364.999585 6944.987337 L 4397.967863 6932.971564 C 4465.030896 6907.963737 4568.967333 6829.035127 4609.971158 6772.035304 C 4685.970923 6666.972388 4696.034133 6571.972683 4647.971041 6425.004759 C 4621.01065 6340.969446 4618.006706 6190.021297 4640.986872 6126.037305 L 4656.006589 6088.037423 L 4719.014299 6219.009349 C 4817.017948 6425.004759 4831.962565 6470.96509 4837.970452 6580.984512 C 4845.029719 6719.015705 4826.029777 6777.968092 4751.982576 6849.987632 C 4669.974925 6928.991339 4546.963448 6964.96356 4409.983636 6950.018942 Z M 4409.983636 6950.018942 " stroke="#1c1c1c" stroke-width="1" stroke-opacity="1" stroke-miterlimit="4"/><path stroke-linecap="butt" transform="matrix(0.052015, 0, 0, -0.052015, -78.52967, 451.829202)" fill-opacity="1" fill="#ffdb15" fill-rule="nonzero" stroke-linejoin="miter" d="M 5703.031013 6948.967562 C 5552.984047 6924.034833 5447.99623 6845.031125 5416.980516 6734.035422 C 5378.980633 6598.03189 5403.988461 6469.988809 5511.980221 6247.997402 C 5551.031484 6165.989751 5587.003704 6099.978098 5590.983929 6099.978098 C 5602.999702 6099.978098 5619.971982 6196.029183 5619.971982 6263.017118 C 5619.971982 6301.993282 5609.98387 6359.969387 5593.011591 6415.016647 C 5555.011709 6545.988573 5555.98799 6625.968563 5596.991816 6710.003876 C 5637.995641 6792.011527 5706.034956 6859.975743 5799.007 6909.015117 C 5872.002821 6947.014999 5872.002821 6947.014999 5840.010826 6953.999167 C 5801.034662 6960.983335 5770.995229 6960.007054 5703.031013 6948.967562 Z M 5703.031013 6948.967562 " stroke="#1c1c1c" stroke-width="1" stroke-opacity="1" stroke-miterlimit="4"/><path stroke-linecap="butt" transform="matrix(0.052015, 0, 0, -0.052015, -78.52967, 451.829202)" fill-opacity="1" fill="#970c10" fill-rule="nonzero" stroke-linejoin="miter" d="M 4840.974395 6913.971623 C 4853.96645 6900.003287 4899.025599 6871.991516 4940.029424 6852.015293 C 5074.981575 6786.979922 5231.036428 6798.019413 5359.004411 6880.027064 C 5390.996406 6900.979568 5421.035839 6922.983453 5423.964684 6928.991339 C 5428.996289 6937.026888 5345.036075 6940.030831 5124.020949 6940.030831 L 4817.017948 6940.030831 Z M 4840.974395 6913.971623 " stroke="#1c1c1c" stroke-width="1" stroke-opacity="1" stroke-miterlimit="4"/><path stroke-linecap="butt" transform="matrix(0.052015, 0, 0, -0.052015, -78.52967, 451.829202)" fill-opacity="1" fill="#970c10" fill-rule="nonzero" stroke-linejoin="miter" d="M 4431.98752 6719.015705 C 4438.971688 6675.984218 4437.019125 6630.023886 4425.979633 6551.99646 C 4416.967804 6492.968975 4409.983636 6419.973154 4409.983636 6390.00882 L 4411.035016 6335.036658 L 4446.030955 6374.989103 C 4564.010826 6507.988691 4567.01477 6694.984159 4453.015123 6761.972094 L 4422.97569 6779.019472 Z M 4431.98752 6719.015705 " stroke="#1c1c1c" stroke-width="1" stroke-opacity="1" stroke-miterlimit="4"/><path stroke-linecap="butt" transform="matrix(0.052015, 0, 0, -0.052015, -78.52967, 451.829202)" fill-opacity="1" fill="#970c10" fill-rule="nonzero" stroke-linejoin="miter" d="M 5777.003116 6758.968151 C 5675.019242 6682.968386 5682.979692 6498.00058 5792.999114 6374.989103 L 5828.971334 6335.036658 L 5830.022714 6394.965326 C 5830.022714 6428.008702 5822.963448 6501.004523 5814.026716 6557.028065 C 5801.034662 6634.980393 5799.007 6672.003993 5806.96745 6719.015705 C 5811.999055 6753.035363 5814.026716 6779.995754 5811.022773 6779.995754 C 5808.01883 6779.995754 5792.022832 6770.007642 5777.003116 6758.968151 Z M 5777.003116 6758.968151 " stroke="#1c1c1c" stroke-width="1" stroke-opacity="1" stroke-miterlimit="4"/><path stroke-linecap="butt" transform="matrix(0.052015, 0, 0, -0.052015, -78.52967, 451.829202)" fill-opacity="1" fill="#ffdb15" fill-rule="nonzero" stroke-linejoin="miter" d="M 4900.00188 6757.015588 C 4900.00188 6731.031478 4921.029483 6624.016 4931.993876 6596.98051 C 4947.013592 6558.004346 5003.037134 6513.020296 5052.001409 6498.976861 C 5143.997172 6475.020414 5254.992875 6506.036128 5295.996701 6567.016176 C 5314.02036 6593.976567 5346.988638 6745.976096 5337.976808 6755.964207 C 5336.024245 6757.015588 5309.965037 6750.03142 5279.024421 6739.96821 C 5163.973394 6700.992046 5022.037075 6706.999932 4929.966214 6754.987926 C 4906.009767 6767.979981 4900.00188 6767.979981 4900.00188 6757.015588 Z M 4900.00188 6757.015588 " stroke="#1c1c1c" stroke-width="1" stroke-opacity="1" stroke-miterlimit="4"/><path stroke-linecap="butt" transform="matrix(0.052015, 0, 0, -0.052015, -78.52967, 451.829202)" fill-opacity="1" fill="#ffdb15" fill-rule="nonzero" stroke-linejoin="miter" d="M 4909.989992 6356.965444 C 4909.989992 6185.965973 4960.981928 6048.986161 5061.989521 5946.026005 L 5121.017006 5884.970859 L 5181.020772 5947.978568 C 5269.03631 6041.025711 5312.96898 6140.981923 5328.964978 6282.993341 C 5333.996583 6324.973448 5334.972865 6378.969328 5333.020301 6403.000874 L 5327.988697 6447.984924 L 5276.020478 6421.024534 C 5231.036428 6397.969269 5213.98905 6394.965326 5124.997231 6394.965326 C 5036.981693 6394.965326 5017.981752 6397.969269 4967.966097 6422.000815 L 4909.989992 6449.036305 Z M 4909.989992 6356.965444 " stroke="#1c1c1c" stroke-width="1" stroke-opacity="1" stroke-miterlimit="4"/><path stroke-linecap="butt" transform="matrix(0.052015, 0, 0, -0.052015, -78.52967, 451.829202)" fill-opacity="1" fill="#970c10" fill-rule="nonzero" stroke-linejoin="miter" d="M 4808.982399 6175.001581 C 4799.97057 6143.009585 4795.014063 6079.025593 4795.014063 6000.021886 C 4795.014063 5877.98669 4795.990345 5873.030184 4829.033721 5805.967151 C 4871.013828 5719.002993 4963.985872 5626.030949 5052.977691 5579.019237 L 5118.013062 5545.975861 L 5181.020772 5574.963914 C 5264.004705 5614.015176 5366.96486 5715.022768 5407.968686 5797.03042 C 5461.964566 5902.994518 5469.023833 6047.033598 5428.996289 6184.989692 L 5416.980516 6225.017236 L 5404.964743 6155.025358 C 5375.97669 5988.982394 5289.988814 5855.006525 5162.020831 5776.002817 L 5118.989344 5748.967327 L 5068.973689 5779.983042 C 4950.993817 5855.982806 4868.009884 5991.010056 4836.017889 6159.981864 L 4824.002116 6225.017236 Z M 4808.982399 6175.001581 " stroke="#1c1c1c" stroke-width="1" stroke-opacity="1" stroke-miterlimit="4"/><path stroke-linecap="butt" transform="matrix(0.052015, 0, 0, -0.052015, -78.52967, 451.829202)" fill-opacity="1" fill="#970c10" fill-rule="nonzero" stroke-linejoin="miter" d="M 4437.995406 6083.005818 C 4443.027011 5943.998344 4431.011238 5902.994518 4349.979869 5775.026535 C 4321.968098 5731.018766 4292.003764 5671.015 4282.991934 5640.975567 C 4261.964331 5566.027183 4269.023598 5471.027477 4302.968157 5399.984219 C 4329.027365 5345.012057 4415.991522 5237.996578 4449.034898 5219.972919 C 4465.030896 5212.012469 4466.007177 5215.992694 4457.971629 5268.036011 C 4446.030955 5354.023887 4457.971629 5431.976215 4504.983341 5574.963914 C 4558.00294 5732.971329 4567.991051 5819.034304 4545.987167 5937.990457 C 4532.018831 6016.017883 4484.030837 6137.001698 4447.983518 6183.037129 C 4435.967745 6200.009408 4434.015182 6187.017354 4437.995406 6083.005818 Z M 4437.995406 6083.005818 " stroke="#1c1c1c" stroke-width="1" stroke-opacity="1" stroke-miterlimit="4"/><path stroke-linecap="butt" transform="matrix(0.052015, 0, 0, -0.052015, -78.52967, 451.829202)" fill-opacity="1" fill="#970c10" fill-rule="nonzero" stroke-linejoin="miter" d="M 5773.022891 6147.966091 C 5726.011179 6070.013764 5701.003351 5997.017942 5688.987578 5909.002405 C 5675.019242 5807.994812 5688.011297 5725.987161 5742.983458 5560.995578 C 5782.034721 5443.015706 5784.963565 5427.99599 5784.963565 5323.984454 L 5784.963565 5212.012469 L 5821.987166 5241.976803 C 5872.002821 5281.028066 5936.963094 5380.984278 5955.963036 5447.972212 C 5967.002527 5485.972095 5970.982752 5525.999639 5967.978809 5574.963914 C 5963.022302 5649.987397 5951.982811 5674.995225 5865.994935 5814.978981 C 5809.971393 5905.998461 5796.003057 5965.025946 5802.010943 6092.017648 C 5805.014887 6150.970034 5806.96745 6200.009408 5805.991168 6200.009408 C 5805.014887 6200.009408 5789.99517 6175.977862 5773.022891 6147.966091 Z M 5773.022891 6147.966091 " stroke="#1c1c1c" stroke-width="1" stroke-opacity="1" stroke-miterlimit="4"/><path stroke-linecap="butt" transform="matrix(0.052015, 0, 0, -0.052015, -78.52967, 451.829202)" fill-opacity="1" fill="#ffdb15" fill-rule="nonzero" stroke-linejoin="miter" d="M 4193.023833 5845.018413 C 4085.032073 5813.026417 4013.012533 5743.034539 3984.024481 5643.003229 C 3959.016653 5557.015353 3985.000763 5460.964267 4048.008472 5408.996049 C 4083.004411 5379.031715 4146.988403 5344.035776 4153.972571 5351.019944 C 4156.976514 5354.023887 4152.996289 5376.027771 4146.012121 5402.011881 C 4101.028071 5551.007466 4128.964743 5715.99905 4216.980281 5820.986867 C 4231.023716 5836.982865 4241.011827 5852.002581 4238.984165 5854.030243 C 4237.031602 5855.982806 4216.003999 5852.002581 4193.023833 5845.018413 Z M 4193.023833 5845.018413 " stroke="#1c1c1c" stroke-width="1" stroke-opacity="1" stroke-miterlimit="4"/><path stroke-linecap="butt" transform="matrix(0.052015, 0, 0, -0.052015, -78.52967, 451.829202)" fill-opacity="1" fill="#ffdb15" fill-rule="nonzero" stroke-linejoin="miter" d="M 6030.010237 5820.986867 C 6040.97463 5804.014588 6065.006176 5760.9831 6083.029836 5722.983218 C 6112.99417 5658.022945 6115.021831 5649.011115 6113.970451 5539.967975 C 6113.970451 5458.035422 6109.013945 5412.976273 6096.998172 5382.035658 L 6081.002174 5339.980452 L 6112.99417 5355.97645 C 6214.978043 5408.996049 6264.017417 5478.987927 6264.993699 5574.963914 C 6264.993699 5688.963561 6194.025539 5786.96721 6080.025892 5830.974978 C 6011.986577 5857.034186 6005.002409 5855.006525 6030.010237 5820.986867 Z M 6030.010237 5820.986867 " stroke="#1c1c1c" stroke-width="1" stroke-opacity="1" stroke-miterlimit="4"/><path stroke-linecap="butt" transform="matrix(0.052015, 0, 0, -0.052015, -78.52967, 451.829202)" fill-opacity="1" fill="#970c10" fill-rule="nonzero" stroke-linejoin="miter" d="M 3462.014241 5770.971212 C 3335.022539 5700.979334 3187.003235 5569.031126 3113.031132 5459.987986 C 3044.015536 5358.004112 2959.980223 5148.028478 2959.980223 5076.98522 C 2959.980223 5066.020827 2996.027542 5116.036482 3041.011592 5190.984866 C 3180.019067 5421.011822 3269.987168 5539.967975 3424.014358 5697.97539 C 3478.98652 5753.998932 3522.018007 5800.034363 3519.014064 5800.034363 C 3516.986402 5800.034363 3491.002293 5786.96721 3462.014241 5770.971212 Z M 3462.014241 5770.971212 " stroke="#1c1c1c" stroke-width="1" stroke-opacity="1" stroke-miterlimit="4"/><path stroke-linecap="butt" transform="matrix(0.052015, 0, 0, -0.052015, -78.52967, 451.829202)" fill-opacity="1" fill="#970c10" fill-rule="nonzero" stroke-linejoin="miter" d="M 3874.005059 5766.014705 C 3766.013299 5715.99905 3700.001646 5624.003288 3700.001646 5522.019414 C 3700.001646 5474.03142 3703.98187 5463.96821 3732.969923 5434.980158 C 3763.985637 5403.964444 3820.98546 5380.007996 3864.016948 5380.007996 C 3877.009002 5380.007996 3880.012946 5384.964503 3874.981341 5398.031656 C 3817.981517 5538.015412 3830.973572 5658.999227 3915.008885 5759.030537 C 3947.00088 5795.979039 3940.992994 5797.03042 3874.005059 5766.014705 Z M 3874.005059 5766.014705 " stroke="#1c1c1c" stroke-width="1" stroke-opacity="1" stroke-miterlimit="4"/><path stroke-linecap="butt" transform="matrix(0.052015, 0, 0, -0.052015, -78.52967, 451.829202)" fill-opacity="1" fill="#970c10" fill-rule="nonzero" stroke-linejoin="miter" d="M 6328.001409 5753.998932 C 6404.001173 5658.999227 6423.977396 5539.967975 6381.997289 5430.999933 L 6360.969686 5377.980334 L 6403.024892 5383.988221 C 6454.016828 5393.000051 6495.996935 5415.980217 6523.032425 5452.027536 C 6562.008589 5503.995754 6540.004704 5611.011233 6476.020713 5687.010998 C 6448.985223 5719.002993 6366.001291 5770.971212 6321.01724 5785.014647 C 6298.037075 5791.998815 6298.037075 5791.022533 6328.001409 5753.998932 Z M 6328.001409 5753.998932 " stroke="#1c1c1c" stroke-width="1" stroke-opacity="1" stroke-miterlimit="4"/><path stroke-linecap="butt" transform="matrix(0.052015, 0, 0, -0.052015, -78.52967, 451.829202)" fill-opacity="1" fill="#ffdb15" fill-rule="nonzero" stroke-linejoin="miter" d="M 6821.023596 5693.018884 C 6968.967802 5541.995637 7087.999054 5382.035658 7229.03419 5146.977098 C 7258.022243 5098.012822 7284.006352 5060.989222 7286.034013 5063.016883 C 7287.986577 5064.969447 7280.026127 5104.020709 7268.986635 5151.032421 C 7210.034249 5386.015883 7062.014945 5585.027124 6840.023538 5728.991105 C 6787.980221 5762.034481 6740.968509 5789.971153 6736.012002 5789.971153 C 6730.980397 5789.971153 6768.980279 5745.963384 6821.023596 5693.018884 Z M 6821.023596 5693.018884 " stroke="#1c1c1c" stroke-width="1" stroke-opacity="1" stroke-miterlimit="4"/><path stroke-linecap="butt" transform="matrix(0.052015, 0, 0, -0.052015, -78.52967, 451.829202)" fill-opacity="1" fill="#ffdb15" fill-rule="nonzero" stroke-linejoin="miter" d="M 4700.990639 5646.983454 C 4650.974984 5529.979864 4617.030425 5411.999992 4611.99882 5339.004171 C 4606.967215 5244.980747 4621.986931 5206.004583 4706.998526 5099.965386 C 4739.966803 5059.036659 4779.018065 5003.989398 4793.962683 4978.981571 C 4826.029777 4923.033127 4865.982223 4807.9821 4875.970334 4743.021827 C 4881.978221 4699.014059 4884.005882 4696.986397 4893.993994 4719.966563 C 4909.989992 4757.966445 4908.037428 5168.0047 4890.99005 5260.000463 C 4870.037546 5377.980334 4831.962565 5497.011586 4789.006177 5586.979687 C 4734.034015 5697.97539 4725.022185 5703.983277 4700.990639 5646.983454 Z M 4700.990639 5646.983454 " stroke="#1c1c1c" stroke-width="1" stroke-opacity="1" stroke-miterlimit="4"/><path stroke-linecap="butt" transform="matrix(0.052015, 0, 0, -0.052015, -78.52967, 451.829202)" fill-opacity="1" fill="#970c10" fill-rule="nonzero" stroke-linejoin="miter" d="M 5489.000055 5646.983454 C 5421.035839 5538.991693 5387.016182 5444.968269 5352.996524 5275.020179 C 5339.028188 5205.028301 5334.972865 5137.965268 5336.024245 4969.969741 C 5336.024245 4839.974096 5340.00447 4744.974391 5346.988638 4730.029773 C 5356.976749 4706.974508 5358.028129 4709.00217 5369.968804 4765.025712 C 5397.004293 4896.97392 5460.012003 5019.009115 5559.968215 5135.036423 C 5646.031189 5234.016354 5653.015358 5327.964679 5589.031366 5510.003641 C 5567.027482 5573.011351 5543.972217 5639.999286 5537.964331 5658.022945 C 5532.031543 5674.995225 5523.995994 5690.014941 5520.992051 5690.014941 C 5517.988108 5690.014941 5502.968392 5671.015 5489.000055 5646.983454 Z M 5489.000055 5646.983454 " stroke="#1c1c1c" stroke-width="1" stroke-opacity="1" stroke-miterlimit="4"/><path stroke-linecap="butt" transform="matrix(0.052015, 0, 0, -0.052015, -78.52967, 451.829202)" fill-opacity="1" fill="#970c10" fill-rule="nonzero" stroke-linejoin="miter" d="M 6603.012414 5668.011056 C 6676.008235 5567.979746 6697.035838 5462.991929 6660.988519 5392.023769 C 6648.972746 5368.968505 6635.00441 5349.968564 6628.996523 5349.968564 C 6621.036074 5349.968564 6621.036074 5345.988339 6628.996523 5336.000227 C 6660.988519 5298.000345 6774.988166 5313.020061 6799.019712 5358.004112 C 6815.991992 5389.996108 6812.011767 5449.999874 6790.007882 5496.035305 C 6765.000055 5547.027242 6679.012179 5636.995342 6625.99258 5668.011056 L 6587.016416 5690.991222 Z M 6603.012414 5668.011056 " stroke="#1c1c1c" stroke-width="1" stroke-opacity="1" stroke-miterlimit="4"/><path stroke-linecap="butt" transform="matrix(0.052015, 0, 0, -0.052015, -78.52967, 451.829202)" fill-opacity="1" fill="#970c10" fill-rule="nonzero" stroke-linejoin="miter" d="M 3594.037547 5652.015059 C 3458.034016 5551.983748 3393.974926 5412.976273 3453.978692 5342.984395 C 3475.006295 5317.976568 3484.994407 5314.972625 3532.9824 5316.024005 C 3563.998114 5316.024005 3595.013828 5322.031891 3604.025658 5329.992341 C 3618.970276 5342.008114 3618.970276 5345.012057 3601.997997 5364.011998 C 3570.006001 5399.007937 3560.017889 5425.968328 3560.017889 5477.035364 C 3560.017889 5525.999639 3595.013828 5617.01912 3627.005824 5652.99134 C 3653.966215 5681.979393 3634.966274 5681.979393 3594.037547 5652.015059 Z M 3594.037547 5652.015059 " stroke="#1c1c1c" stroke-width="1" stroke-opacity="1" stroke-miterlimit="4"/><path stroke-linecap="butt" transform="matrix(0.052015, 0, 0, -0.052015, -78.52967, 451.829202)" fill-opacity="1" fill="#ffdb15" fill-rule="nonzero" stroke-linejoin="miter" d="M 5232.988991 5468.999815 C 5163.973394 5437.00782 5111.028894 5434.980158 5035.02913 5459.011704 C 4998.005529 5471.027477 4966.013533 5478.987927 4963.985872 5477.035364 C 4959.029365 5472.003759 5086.021067 5270.964856 5109.001233 5247.008408 C 5125.973512 5230.036129 5128.001174 5231.01241 5153.985283 5270.964856 C 5210.985106 5357.02783 5289.012533 5490.027418 5282.028365 5488.976038 C 5277.973041 5488.976038 5255.969157 5479.964208 5232.988991 5468.999815 Z M 5232.988991 5468.999815 " stroke="#1c1c1c" stroke-width="1" stroke-opacity="1" stroke-miterlimit="4"/><path stroke-linecap="butt" transform="matrix(0.052015, 0, 0, -0.052015, -78.52967, 451.829202)" fill-opacity="1" fill="#ffdb15" fill-rule="nonzero" stroke-linejoin="miter" d="M 7290.014238 5349.968564 C 7340.029894 5251.964915 7388.017887 5120.016707 7414.001996 5012.024947 C 7441.037486 4902.981806 7464.017652 4716.96262 7458.009765 4655.00629 L 7455.005822 4614.978746 L 7407.017828 4699.99034 C 7381.033719 4747.002052 7337.02595 4814.966269 7309.990461 4851.989869 C 7236.018358 4949.993518 7081.991167 5092.004936 7005.015121 5130.9811 C 6968.967802 5149.981041 6939.97975 5170.032362 6939.97975 5174.988869 C 6941.03113 5180.996755 6945.011355 5203.976921 6948.991579 5227.032186 L 6957.027128 5269.012293 L 6913.019359 5231.01241 C 6831.011708 5158.992871 6733.008059 5152.984984 6568.992757 5212.012469 C 6479.024656 5244.004465 6469.036545 5244.980747 6330.02907 5244.980747 C 6160.005882 5244.980747 6081.978455 5227.032186 5935.010531 5154.036364 C 5583.023479 4980.032951 5456.031778 4661.014176 5542.995936 4170.01965 C 5586.027423 3933.008527 5593.011591 3850.024594 5580.995818 3755.024888 C 5564.99982 3635.993637 5532.031543 3566.97804 5514.007883 3613.989752 C 5505.972335 3635.993637 5428.996289 3667.985632 5346.988638 3686.009292 C 5124.020949 3733.021004 4801.998231 3696.973685 4735.986578 3619.021357 L 4710.002469 3588.005643 L 4690.026246 3632.989693 C 4643.990816 3737.001229 4644.967097 3882.992871 4696.034133 4164.988045 C 4732.982635 4370.007173 4735.010297 4567.967034 4701.966921 4684.970624 C 4641.963154 4895.997638 4516.022833 5045.969505 4314.98393 5148.028478 C 4095.996466 5257.972801 3871.977397 5279.976686 3671.013593 5211.036188 C 3507.974572 5154.036364 3409.970924 5158.992871 3329.990934 5228.008467 L 3288.010827 5263.980688 L 3294.018714 5213.965032 L 3301.002882 5165.000757 L 3257.971394 5143.973154 C 3113.031132 5072.028713 2908.012004 4851.989869 2810.984637 4662.966739 C 2798.968864 4639.010292 2787.02819 4620.010351 2782.972866 4620.010351 C 2774.036135 4620.010351 2788.004471 4791.009821 2806.028131 4899.977863 C 2826.004353 5019.009115 2876.99629 5190.008585 2928.964509 5308.964738 L 2968.992053 5401.035599 L 2927.011946 5367.992223 C 2851.988463 5308.964738 2674.004824 5124.973213 2589.969511 5019.009115 C 2481.00147 4883.005583 2408.98193 4772.00988 2354.009768 4655.00629 C 2313.005943 4567.967034 2249.998233 4399.971507 2249.998233 4376.015059 C 2249.998233 4370.983454 2272.978399 4399.971507 2300.99017 4439.999051 C 2398.993819 4582.98675 2500.001411 4692.029891 2611.973396 4778.994048 C 2620.985226 4785.978216 2604.012946 4754.962502 2573.973514 4709.00217 C 2389.981989 4434.967446 2287.021833 4041.976569 2306.998056 3692.017178 C 2310.001999 3629.98575 2315.033604 3581.021475 2316.986168 3584.025418 C 2319.013829 3585.977981 2329.001941 3623.001582 2339.966333 3666.033069 C 2383.974102 3847.996932 2471.013358 4060.97651 2553.021009 4186.015648 C 2632.024717 4306.023181 2642.98911 4306.999463 2604.012946 4189.995873 C 2456.969924 3752.020945 2471.98964 3221.975157 2643.965392 2799.019945 C 2687.97316 2691.028185 2757.965038 2555.024654 2766.000587 2562.985103 C 2769.00453 2565.012765 2765.024305 2600.984986 2759.016419 2641.01253 C 2740.992759 2759.968683 2753.008532 3018.983691 2784.024246 3177.967388 C 2835.016183 3432.025889 2924.008002 3664.005408 3031.999763 3822.012823 C 3075.03125 3886.973096 3202.022951 4025.004289 3231.987285 4041.000287 C 3247.007002 4049.035835 3260.975338 4041.976569 3304.983107 4006.004348 C 3352.9711 3968.004466 3357.026424 3959.968917 3344.034369 3949.004525 C 3335.022539 3942.020356 3307.98705 3907.024417 3282.979222 3873.00476 C 3237.01889 3807.969388 3197.967628 3705.985515 3187.003235 3619.021357 L 3180.995348 3572.985927 L 3278.022716 3669.037013 C 3380.006589 3768.993225 3444.966863 3813.977275 3551.982341 3857.985044 C 3602.974278 3879.012647 3632.037429 3883.969153 3706.985814 3883.969153 C 3757.97775 3885.020533 3800.032956 3885.996815 3800.032956 3886.973096 C 3800.032956 3888.024476 3728.989698 3924.972978 3643.001822 3968.980747 C 3466.970747 4059.023947 3339.002764 4148.992047 3259.999056 4240.011528 C 3222.975455 4282.967917 3200.971571 4300.015295 3183.999292 4300.015295 C 3151.031014 4300.015295 3145.999409 4282.967917 3164.99935 4230.999698 C 3173.034899 4206.968152 3180.019067 4186.99193 3180.019067 4186.015648 C 3180.019067 4183.987986 3151.031014 4160.031539 3114.983695 4132.019768 C 3003.987992 4041.976569 2883.004177 3876.984985 2823.976692 3731.969624 C 2798.968864 3670.013294 2795.964921 3673.993519 2779.968923 3784.989222 C 2757.965038 3943.97292 2776.96498 4177.003818 2826.004353 4347.027007 C 2901.027836 4604.990634 3040.035311 4810.009762 3218.018949 4924.009409 C 3330.967216 4997.00523 3386.990758 5013.001228 3519.990346 5013.97751 C 3595.99011 5015.02889 3643.001822 5010.973566 3656.970158 5002.036835 C 3670.037311 4994.977569 3696.021421 4955.025123 3716.973925 4911.993636 C 3785.989521 4769.005937 3909.97728 4673.029949 4070.988638 4636.006349 C 4105.984577 4627.9708 4200.008002 4617.006408 4279.987991 4611.974803 C 4390.983694 4604.990634 4435.967745 4598.006466 4472.015064 4582.010469 C 4567.991051 4540.030361 4586.014711 4453.967387 4523.983282 4329.979629 C 4485.9834 4255.031244 4419.971747 4183.011705 4178.004117 3954.03613 C 4064.980752 3845.969271 4016.016477 3780.032716 3981.020538 3686.985574 C 3950.981105 3604.001641 3953.985048 3600.021416 4003.024422 3666.033069 C 4054.992641 3736.024947 4137.000292 3809.99705 4320.015535 3951.032186 C 4393.987638 4008.03201 4487.03478 4085.008056 4526.010944 4123.007938 C 4564.987108 4160.031539 4599.006765 4189.995873 4601.034427 4189.995873 C 4602.98699 4189.995873 4605.014652 4088.011999 4605.014652 3962.972861 C 4605.014652 3775.977393 4608.018595 3721.981513 4622.963213 3664.981689 C 4647.971041 3566.97804 4681.014416 3499.013824 4731.030072 3445.017944 L 4773.010179 3398.982513 L 4801.998231 3435.029832 C 4842.025775 3481.966446 4878.974277 3483.017826 4925.985989 3436.006114 C 4969.017477 3392.974627 4970.97004 3362.034011 4929.966214 3353.998463 C 4910.966273 3350.018238 4900.00188 3341.006408 4900.00188 3331.018297 C 4900.00188 3300.978864 4966.013533 3234.967211 5029.021243 3201.022652 C 5086.021067 3170.98322 5090.001292 3166.026713 5092.028953 3132.007056 C 5096.98546 3024.991577 5073.029012 2992.999581 4934.997819 2926.011647 C 4782.022009 2850.011882 4716.986637 2834.992166 4554.998997 2834.992166 C 4428.983577 2834.992166 4408.031072 2837.996109 4342.019419 2862.027655 C 4147.964685 2932.019533 4014.965097 3059.011235 3943.996937 3242.026478 C 3918.012828 3306.010469 3915.008885 3309.990694 3906.973336 3288.963091 C 3902.01683 3275.971037 3858.009061 3182.022711 3810.021067 3079.963739 C 3760.981694 2977.979865 3709.013475 2856.019769 3693.993759 2808.031775 C 3677.997761 2758.992401 3662.978045 2720.016237 3658.99782 2720.016237 C 3648.033427 2720.016237 3594.037547 2857.972332 3573.986226 2939.979983 C 3560.017889 2996.003525 3554.986285 3052.027066 3554.986285 3161.97139 C 3554.986285 3243.979041 3554.010003 3309.990694 3553.033721 3309.990694 C 3545.974455 3309.990694 3500.014123 3205.979159 3481.990463 3150.030715 C 3446.994524 3040.987575 3436.030131 2961.007586 3437.006413 2815.015943 C 3439.034075 2328.977923 3709.013475 1841.963622 4162.008119 1505.972568 L 4199.03172 1478.035896 L 4169.968569 1532.031776 C 4013.012533 1825.967624 3981.996819 2227.970331 4089.98858 2552.02071 C 4121.980575 2645.969036 4165.988344 2740.968742 4197.004058 2778.968624 L 4216.003999 2802.023888 L 4285.995877 2755.012176 C 4362.971924 2701.992578 4430.034957 2669.0243 4513.018889 2644.992754 C 4564.010826 2629.973038 4570.994994 2625.016532 4590.971217 2581.985044 C 4618.006706 2527.012883 4717.962919 2425.029009 4779.018065 2391.009352 C 4817.994229 2369.981749 4821.974454 2369.005467 4817.017948 2385.977747 C 4814.014004 2397.017238 4808.982399 2425.029009 4805.002175 2450.036837 L 4798.994288 2495.020887 L 4821.974454 2464.981454 C 4861.025716 2413.013236 4899.025599 2381.997522 4957.977985 2353.009469 C 5008.969922 2328.001642 5024.96592 2324.997698 5119.965626 2324.997698 C 5214.965331 2324.997698 5231.036428 2328.001642 5282.028365 2353.009469 C 5317.024304 2369.981749 5359.004411 2403.025125 5390.996406 2438.021064 L 5441.988343 2493.969507 L 5435.980457 2450.036837 C 5432.000232 2425.029009 5425.992345 2397.017238 5423.964684 2388.005408 C 5416.980516 2362.997581 5425.992345 2365.025242 5479.988226 2400.021181 C 5543.972217 2441.025007 5627.031248 2530.016826 5650.011414 2583.036425 C 5668.035074 2622.98887 5673.967862 2628.020475 5729.991404 2644.016473 C 5802.987225 2663.992696 5906.022479 2714.984632 5974.962977 2764.024006 L 6024.978632 2799.996227 L 6043.978573 2777.992342 C 6078.974512 2736.012235 6148.96639 2575.977158 6172.997936 2480.001171 C 6201.985989 2369.005467 6220.009648 2235.029598 6220.009648 2131.018062 C 6220.009648 1960.994874 6159.0296 1706.035189 6081.002174 1551.031717 C 6064.029894 1517.988341 6052.014121 1489.97657 6055.994346 1489.97657 C 6071.014062 1489.97657 6254.029306 1647.007704 6324.997465 1720.979807 C 6599.032189 2008.006586 6765.976336 2356.989694 6802.023655 2720.016237 C 6819.972216 2904.007762 6792.035544 3091.979512 6727.000172 3230.010705 L 6695.984458 3294.970978 L 6689.976572 3144.99911 C 6685.020065 3040.987575 6676.984517 2970.019415 6661.964801 2913.995874 C 6635.980692 2815.992225 6591.972923 2714.008351 6581.00853 2726.024124 C 6575.976925 2730.98063 6561.032307 2771.008174 6546.012591 2815.992225 C 6530.992875 2859.999993 6485.032543 2965.964092 6444.028717 3050.975686 C 6401.973511 3135.987281 6356.989461 3229.034423 6344.973688 3258.998757 L 6322.969804 3312.994637 L 6300.965919 3249.010646 C 6245.017476 3078.011176 6091.966567 2932.019533 5897.986931 2862.027655 C 5831.975277 2837.996109 5811.022773 2835.968447 5679.975748 2835.968447 C 5526.023656 2834.992166 5480.964507 2844.003996 5362.984636 2895.972214 C 5292.992758 2926.987928 5204.97722 2983.01147 5174.036604 3017.031127 C 5153.985283 3039.035012 5150.005058 3053.003348 5150.005058 3106.999228 L 5150.005058 3170.006938 L 5204.97722 3195.991047 C 5264.004705 3224.002818 5340.00447 3297.974921 5340.00447 3328.990635 C 5340.00447 3341.98269 5330.99264 3348.966858 5309.965037 3353.998463 C 5255.969157 3363.986574 5283.004646 3429.998227 5355.024186 3464.017885 C 5397.004293 3483.994108 5422.012121 3474.982278 5444.992287 3429.998227 C 5457.984341 3404.9904 5463.992228 3401.010175 5479.011944 3410.022005 C 5507.023715 3424.966622 5558.015652 3492.029656 5581.972099 3547.001817 C 5627.031248 3650.037071 5631.987755 3686.009292 5637.01936 3942.996638 L 5641.975866 4190.972154 L 5719.027011 4117.976333 C 5761.007118 4076.972508 5858.034485 3996.016237 5935.986813 3936.988752 C 6103.006058 3810.973332 6213.02548 3711.993401 6252.977926 3650.037071 L 6281.965978 3604.977922 L 6274.98181 3645.005466 C 6258.985812 3737.97751 6211.9741 3809.020769 6086.033779 3930.004583 C 5814.026716 4190.972154 5752.97157 4256.007526 5720.979574 4322.019179 C 5666.007412 4434.967446 5672.015299 4522.982983 5738.026952 4566.014471 C 5777.003116 4591.022298 5856.983105 4610.022239 5929.978926 4610.022239 C 6236.005646 4610.022239 6423.001114 4706.974508 6528.965213 4918.977804 C 6566.965095 4994.001287 6571.9967 5000.009173 6612.024244 5010.973566 C 6708.976513 5037.032774 6882.979926 5007.969623 6989.019123 4946.989575 C 7132.983104 4864.005642 7281.97869 4690.97851 7354.974511 4519.002759 C 7452.97816 4291.979747 7490.978043 4015.992459 7458.986047 3783.036659 C 7443.966331 3673.993519 7436.982162 3667.985632 7411.974335 3737.001229 C 7363.986341 3866.020592 7233.990696 4044.00423 7122.018711 4130.968388 C 7084.995111 4160.031539 7053.979396 4184.964268 7052.026833 4184.964268 C 7050.975453 4186.015648 7059.011001 4208.019532 7069.975394 4234.003642 C 7081.991167 4259.011469 7087.999054 4284.995578 7084.995111 4290.027183 C 7069.975394 4313.983631 7037.007117 4294.007408 6954.023184 4211.999757 C 6841.976101 4101.004054 6803.976218 4075.019944 6597.980809 3970.032127 L 6432.012944 3885.020533 L 6527.988931 3883.969153 C 6691.027952 3882.01659 6800.972275 3828.02071 6960.031071 3673.017237 C 7011.999289 3622.0253 7056.007058 3582.974038 7058.03472 3585.0017 C 7059.987283 3587.029361 7055.030777 3623.977864 7046.018947 3666.033069 C 7027.019006 3759.981395 6992.023067 3834.028596 6932.0193 3908.000699 L 6887.03525 3962.972861 L 6935.999525 4006.004348 C 6963.035014 4030.035894 6987.967743 4049.035835 6992.023067 4050.012117 C 7008.995346 4050.988398 7125.998936 3930.004583 7185.026421 3851.000876 C 7306.010236 3689.989517 7400.03366 3464.994166 7455.005822 3198.994991 C 7486.021536 3052.027066 7499.989872 2752.984515 7481.966213 2635.004643 C 7476.033425 2597.004761 7471.978101 2564.036483 7474.005763 2562.008822 C 7480.01365 2556.000935 7538.966036 2670.000582 7584.025185 2774.988399 C 7762.008823 3188.030598 7787.016651 3671.965857 7655.969626 4127.964444 C 7635.993404 4196.003759 7614.965801 4260.964032 7607.981633 4272.979805 C 7581.997523 4322.019179 7631.036897 4265.995637 7685.032777 4186.015648 C 7772.973216 4053.01606 7847.020418 3879.012647 7898.988636 3680.001405 L 7927.000407 3575.013588 L 7933.984575 3674.9698 C 7942.020123 3775.001111 7930.00435 3968.980747 7908.976748 4085.008056 C 7870.000584 4310.979688 7777.02854 4545.963149 7657.997288 4722.970506 C 7636.969685 4753.98622 7623.001349 4779.97033 7628.032954 4779.97033 C 7632.013179 4779.97033 7677.973511 4740.994166 7727.989166 4693.982454 C 7806.016592 4621.962914 7899.964918 4509.014647 7981.972569 4389.983395 C 7999.019947 4364.975568 7999.019947 4364.975568 7989.031835 4402.97545 C 7949.004291 4553.998698 7835.004645 4778.994048 7718.977336 4937.001464 C 7610.985576 5082.016825 7416.029658 5288.988515 7302.030011 5379.031715 L 7258.022243 5412.976273 Z M 3956.988992 5104.020709 C 3976.965214 5098.012822 3978.016594 5094.032598 3972.984989 5032.001169 C 3969.004765 4974.025064 3972.008708 4959.005348 3991.984931 4920.029184 C 4038.996643 4832.989928 4143.008178 4788.982159 4241.988109 4814.966269 C 4301.991875 4829.985985 4326.999703 4851.989869 4354.035192 4912.969917 L 4375.963978 4961.03301 L 4422.97569 4920.029184 C 4449.034898 4896.97392 4469.987402 4870.98981 4469.987402 4863.029361 C 4469.987402 4835.01759 4424.02707 4785.001934 4374.011415 4757.966445 C 4260.011768 4696.986397 4146.012121 4696.986397 4026.98087 4757.966445 C 3914.032603 4816.99393 3842.013063 4923.033127 3823.989404 5059.036659 L 3817.005236 5110.028595 L 3876.032721 5110.028595 C 3909.000998 5110.028595 3944.973219 5107.024652 3956.988992 5104.020709 Z M 6413.013003 5054.005054 C 6410.00906 4968.017178 6375.013121 4892.993695 6305.997524 4823.978098 C 6224.966155 4743.021827 6157.97822 4715.986338 6039.998348 4715.010056 C 5963.022302 4715.010056 5948.002586 4718.014 5887.022538 4747.978334 C 5811.999055 4785.001934 5764.011061 4835.993871 5774.975454 4869.037247 C 5782.034721 4890.966033 5847.971275 4949.993518 5865.018653 4949.993518 C 5869.97516 4949.017237 5884.994876 4927.013352 5897.986931 4899.977863 C 5926.974983 4838.021533 5979.0183 4810.009762 6065.982457 4810.009762 C 6135.974336 4810.009762 6188.017653 4835.993871 6233.977984 4892.993695 C 6262.966037 4930.017295 6264.993699 4937.001464 6264.993699 5016.005171 C 6264.993699 5111.004877 6262.966037 5108.977215 6359.993404 5105.973272 L 6414.965566 5104.99699 Z M 6413.013003 5054.005054 " stroke="#1c1c1c" stroke-width="1" stroke-opacity="1" stroke-miterlimit="4"/><path stroke-linecap="butt" transform="matrix(0.052015, 0, 0, -0.052015, -78.52967, 451.829202)" fill-opacity="1" fill="#970c10" fill-rule="nonzero" stroke-linejoin="miter" d="M 5080.989462 5053.028772 C 5098.03684 4987.9934 5112.981458 4927.989634 5117.036781 4920.029184 C 5119.965626 4911.993636 5134.985342 4955.025123 5150.005058 5015.02889 C 5165.024775 5076.008938 5179.969392 5135.036423 5184.024716 5148.028478 C 5191.008884 5168.980982 5188.981222 5170.032362 5121.993287 5170.032362 L 5052.001409 5170.032362 Z M 5080.989462 5053.028772 " stroke="#1c1c1c" stroke-width="1" stroke-opacity="1" stroke-miterlimit="4"/><path stroke-linecap="butt" transform="matrix(0.052015, 0, 0, -0.052015, -78.52967, 451.829202)" fill-opacity="1" fill="#970c10" fill-rule="nonzero" stroke-linejoin="miter" d="M 3371.971041 4895.021356 C 3317.975161 4880.00164 3254.967451 4851.013588 3262.026718 4845.005701 C 3263.979281 4842.978039 3285.006884 4845.981983 3310.014711 4851.013588 C 3358.978987 4861.977981 3420.034133 4854.993812 3462.990522 4832.989928 C 3478.010238 4826.00576 3520.966627 4778.017766 3558.966509 4727.02583 C 3639.021597 4617.982689 3687.009591 4575.0263 3779.005353 4525.986927 C 3899.989168 4462.979217 4003.024422 4439.022769 4190.996172 4430.987221 C 4374.987697 4423.026771 4399.995524 4415.967505 4425.003352 4357.015118 L 4438.971688 4325.023122 L 4440.023068 4373.011116 C 4440.023068 4436.018826 4418.995465 4475.971271 4377.99164 4487.987044 C 4359.96798 4493.994931 4288.999821 4500.979099 4219.984224 4503.006761 C 4064.00447 4509.990929 3968.028483 4531.018532 3861.989286 4581.034187 C 3760.981694 4629.998462 3670.037311 4715.010056 3615.966333 4812.037424 C 3595.99011 4848.009644 3573.009944 4883.005583 3566.025776 4889.01347 C 3542.970511 4908.013411 3430.022245 4911.017354 3371.971041 4895.021356 Z M 3371.971041 4895.021356 " stroke="#1c1c1c" stroke-width="1" stroke-opacity="1" stroke-miterlimit="4"/><path stroke-linecap="butt" transform="matrix(0.052015, 0, 0, -0.052015, -78.52967, 451.829202)" fill-opacity="1" fill="#970c10" fill-rule="nonzero" stroke-linejoin="miter" d="M 6710.027893 4902.981806 C 6673.980574 4895.997638 6663.992462 4885.033245 6628.020242 4817.970212 C 6549.016534 4668.974626 6407.981398 4566.990752 6223.013592 4524.034364 C 6185.989991 4515.022534 6087.986342 4505.034422 6005.978691 4500.979099 L 5858.034485 4493.994931 L 5828.971334 4462.002935 C 5803.963506 4434.967446 5799.983282 4421.975391 5801.034662 4376.991341 L 5802.010943 4325.023122 L 5815.979279 4357.015118 C 5840.987107 4415.967505 5865.018653 4423.026771 6049.010178 4430.987221 C 6219.033367 4437.971389 6283.017358 4449.987162 6391.9854 4493.994931 C 6524.008706 4547.990811 6609.020301 4617.006408 6692.004233 4740.017884 C 6717.012061 4775.990105 6749.980338 4814.966269 6768.003998 4826.00576 C 6819.972216 4861.977981 6916.999584 4867.009586 6974.975689 4836.970153 C 6992.999348 4828.033422 6992.999348 4829.009703 6982.034955 4842.978039 C 6948.991579 4882.029302 6783.999996 4918.977804 6710.027893 4902.981806 Z M 6710.027893 4902.981806 " stroke="#1c1c1c" stroke-width="2" stroke-opacity="1" stroke-miterlimit="4"/><path stroke-linecap="butt" transform="matrix(0.052015, 0, 0, -0.052015, -78.52967, 451.829202)" fill-opacity="1" fill="#ffdb15" fill-rule="nonzero" stroke-linejoin="miter" d="M 3431.974808 4633.978687 C 3402.010474 4613.026183 3402.986755 4566.014471 3434.978751 4534.998756 C 3465.994465 4503.006761 3484.994407 4503.983042 3516.010121 4535.975038 C 3535.986343 4554.974979 3539.966568 4566.990752 3535.010062 4588.018355 C 3520.966627 4645.99446 3477.033957 4665.970683 3431.974808 4633.978687 Z M 3431.974808 4633.978687 " stroke="#1c1c1c" stroke-width="2" stroke-opacity="1" stroke-miterlimit="4"/><path stroke-linecap="butt" transform="matrix(0.052015, 0, 0, -0.052015, -78.52967, 451.829202)" fill-opacity="1" fill="#ffdb15" fill-rule="nonzero" stroke-linejoin="miter" d="M 6724.972511 4624.966857 C 6711.004174 4611.974803 6699.964683 4591.99858 6699.964683 4579.982807 C 6699.964683 4556.026359 6742.019889 4509.990929 6762.972393 4509.990929 C 6793.988107 4509.990929 6830.035426 4550.994754 6830.035426 4585.014412 C 6830.035426 4645.99446 6768.980279 4668.974626 6724.972511 4624.966857 Z M 6724.972511 4624.966857 " stroke="#1c1c1c" stroke-width="2" stroke-opacity="1" stroke-miterlimit="4"/><path stroke-linecap="butt" transform="matrix(0.052015, 0, 0, -0.052015, -78.52967, 451.829202)" fill-opacity="1" fill="#970c10" fill-rule="nonzero" stroke-linejoin="miter" d="M 6960.031071 4543.034305 C 6941.03113 4506.010704 6898.975924 4448.034599 6866.007647 4411.98728 C 6729.027834 4265.995637 6562.98487 4182.035423 6224.966155 4087.035717 L 6175.025598 4072.992283 L 6243.966096 4065.031833 C 6438.020831 4043.027949 6651.976689 4114.97239 6837.995876 4266.971919 C 6977.979632 4380.971566 6977.00335 4379.995284 7040.01106 4379.995284 C 7120.967331 4379.995284 7201.022419 4338.015177 7278.974747 4253.979864 C 7312.994404 4218.983925 7340.029894 4192.999816 7340.029894 4198.031421 C 7340.029894 4218.983925 7297.974688 4325.023122 7268.010354 4382.022946 C 7224.978867 4462.979217 7135.987048 4553.022416 7068.999113 4585.014412 C 7039.034779 4598.982748 7011.023008 4610.022239 7005.015121 4610.022239 C 6999.983516 4610.022239 6979.031012 4579.982807 6960.031071 4543.034305 Z M 6960.031071 4543.034305 " stroke="#1c1c1c" stroke-width="2" stroke-opacity="1" stroke-miterlimit="4"/><path stroke-linecap="butt" transform="matrix(0.052015, 0, 0, -0.052015, -78.52967, 451.829202)" fill-opacity="1" fill="#970c10" fill-rule="nonzero" stroke-linejoin="miter" d="M 3132.031073 4559.030303 C 3069.999645 4519.002759 3035.003706 4480.026595 2987.015712 4402.97545 C 2956.97628 4354.987456 2914.996172 4256.007526 2905.008061 4208.019532 L 2898.023893 4174.976156 L 2934.972395 4221.987869 C 2978.003882 4277.035129 3060.011533 4342.971683 3113.031132 4364.975568 C 3133.007355 4373.011116 3174.01118 4379.995284 3202.999233 4379.995284 C 3263.002999 4379.995284 3266.983224 4377.967622 3402.010474 4266.971919 C 3494.982518 4190.972154 3646.982047 4110.992165 3748.965921 4085.008056 C 3829.021009 4065.031833 3960.969216 4056.020003 4019.996702 4066.984396 L 4064.980752 4075.996226 L 3990.032367 4094.019886 C 3646.005765 4179.03148 3398.030249 4334.034952 3285.983165 4534.022475 C 3253.99117 4591.022298 3244.97934 4600.034128 3221.022892 4600.034128 C 3203.975514 4600.034128 3167.027012 4582.98675 3132.031073 4559.030303 Z M 3132.031073 4559.030303 " stroke="#1c1c1c" stroke-width="2" stroke-opacity="1" stroke-miterlimit="4"/><path stroke-linecap="butt" transform="matrix(0.052015, 0, 0, -0.052015, -78.52967, 451.829202)" fill-opacity="1" fill="#970c10" fill-rule="nonzero" stroke-linejoin="miter" d="M 3610.033545 4469.963385 C 3569.029719 4429.034658 3599.970335 4360.019061 3658.021538 4360.019061 C 3694.970041 4360.019061 3719.977868 4388.030832 3719.977868 4427.983278 C 3719.977868 4484.00682 3649.98599 4509.990929 3610.033545 4469.963385 Z M 3610.033545 4469.963385 " stroke="#1c1c1c" stroke-width="2" stroke-opacity="1" stroke-miterlimit="4"/><path stroke-linecap="butt" transform="matrix(0.052015, 0, 0, -0.052015, -78.52967, 451.829202)" fill-opacity="1" fill="#ffdb15" fill-rule="nonzero" stroke-linejoin="miter" d="M 6542.032366 4474.018708 C 6514.020595 4455.018767 6511.992933 4399.971507 6537.977043 4376.991341 C 6580.032248 4338.991459 6650.024126 4372.034834 6650.024126 4429.034658 C 6650.024126 4462.002935 6619.984694 4490.014706 6584.988755 4490.014706 C 6574.024362 4490.014706 6553.97304 4483.030538 6542.032366 4474.018708 Z M 6542.032366 4474.018708 " stroke="#1c1c1c" stroke-width="2" stroke-opacity="1" stroke-miterlimit="4"/><path stroke-linecap="butt" transform="matrix(0.052015, 0, 0, -0.052015, -78.52967, 451.829202)" fill-opacity="1" fill="#ffdb15" fill-rule="nonzero" stroke-linejoin="miter" d="M 6328.001409 4383.975509 C 6305.997524 4373.011116 6299.989638 4361.971625 6299.989638 4335.987515 C 6299.989638 4275.983749 6366.977572 4246.995696 6410.00906 4290.027183 C 6436.96945 4316.987574 6435.016887 4345.975627 6404.977455 4374.963679 C 6376.965684 4404.02683 6366.001291 4405.003112 6328.001409 4383.975509 Z M 6328.001409 4383.975509 " stroke="#1c1c1c" stroke-width="2" stroke-opacity="1" stroke-miterlimit="4"/><path stroke-linecap="butt" transform="matrix(0.052015, 0, 0, -0.052015, -78.52967, 451.829202)" fill-opacity="1" fill="#970c10" fill-rule="nonzero" stroke-linejoin="miter" d="M 3823.989404 4363.999286 C 3801.985519 4331.031009 3814.977574 4290.027183 3852.001175 4272.003524 C 3902.993111 4247.971978 3960.969216 4300.991576 3940.992994 4354.011175 C 3922.969334 4398.995225 3849.973513 4405.003112 3823.989404 4363.999286 Z M 3823.989404 4363.999286 " stroke="#1c1c1c" stroke-width="2" stroke-opacity="1" stroke-miterlimit="4"/><path stroke-linecap="butt" transform="matrix(0.052015, 0, 0, -0.052015, -78.52967, 451.829202)" fill-opacity="1" fill="#970c10" fill-rule="nonzero" stroke-linejoin="miter" d="M 4067.008414 4332.007291 C 4019.996702 4281.015354 4076.020243 4202.011646 4137.000292 4231.97598 C 4200.008002 4262.015413 4184.988285 4350.03095 4115.972689 4350.03095 C 4096.972748 4350.03095 4076.020243 4341.995402 4067.008414 4332.007291 Z M 4067.008414 4332.007291 " stroke="#1c1c1c" stroke-width="2" stroke-opacity="1" stroke-miterlimit="4"/><path stroke-linecap="butt" transform="matrix(0.052015, 0, 0, -0.052015, -78.52967, 451.829202)" fill-opacity="1" fill="#970c10" fill-rule="nonzero" stroke-linejoin="miter" d="M 6075.970569 4328.027066 C 6055.018065 4298.963915 6055.994346 4277.035129 6077.998231 4249.999639 C 6113.970451 4205.991871 6189.970216 4233.02736 6189.970216 4291.003465 C 6189.970216 4328.027066 6166.013768 4350.03095 6125.009943 4350.03095 C 6100.978397 4350.03095 6086.033779 4342.971683 6075.970569 4328.027066 Z M 6075.970569 4328.027066 " stroke="#1c1c1c" stroke-width="2" stroke-opacity="1" stroke-miterlimit="4"/><path stroke-linecap="butt" transform="matrix(0.052015, 0, 0, -0.052015, -78.52967, 451.829202)" fill-opacity="1" fill="#ffdb15" fill-rule="nonzero" stroke-linejoin="miter" d="M 3045.968099 3699.001347 C 2848.008238 3268.986869 2914.019891 2735.035954 3222.975455 2270.025537 C 3270.963449 2198.005997 3399.982812 2036.994638 3405.990699 2043.002525 C 3406.96698 2043.978806 3392.998644 2090.990518 3374.974985 2145.96268 C 3278.998997 2432.013177 3266.983224 2698.988635 3335.998821 2974.975922 C 3401.034192 3233.99093 3535.986343 3458.009998 3646.982047 3490.001994 C 3686.033309 3502.017767 3693.017477 3500.966387 3740.029189 3477.986221 C 3766.98958 3464.017885 3789.969746 3455.982337 3789.969746 3459.962561 C 3789.969746 3474.982278 3757.001469 3546.025536 3737.025246 3574.037307 C 3725.985755 3588.981925 3699.025364 3610.985809 3675.970099 3620.97392 C 3516.986402 3692.99346 3269.987168 3544.974156 3133.983636 3294.970978 L 3095.983754 3226.03048 L 3080.964038 3269.96315 C 3061.964097 3329.966917 3060.011533 3655.969859 3078.035193 3718.977569 C 3098.987697 3788.969447 3082.991699 3778.981336 3045.968099 3699.001347 Z M 3045.968099 3699.001347 " stroke="#1c1c1c" stroke-width="2" stroke-opacity="1" stroke-miterlimit="4"/><path stroke-linecap="butt" transform="matrix(0.052015, 0, 0, -0.052015, -78.52967, 451.829202)" fill-opacity="1" fill="#ffdb15" fill-rule="nonzero" stroke-linejoin="miter" d="M 7150.030482 3765.013 C 7150.030482 3759.005113 7154.010707 3739.028891 7160.018594 3721.005231 C 7189.982928 3613.989752 7191.034308 3383.962797 7160.018594 3271.01453 L 7148.979102 3227.006761 L 7097.987165 3310.966976 C 7071.026774 3357.002406 7027.995287 3419.033835 7002.98746 3448.021887 C 6910.991697 3556.013647 6754.035662 3639.973861 6645.968803 3639.973861 C 6559.980927 3639.973861 6476.020713 3569.005702 6454.016828 3476.033658 L 6447.03266 3445.994225 L 6473.01677 3467.021828 C 6539.028423 3518.013765 6621.036074 3499.990105 6695.984458 3417.006173 C 6783.999996 3319.002524 6863.003704 3154.987222 6908.964035 2974.975922 C 6973.023126 2718.964857 6960.031071 2416.993461 6870.964153 2160.006115 C 6854.968155 2112.994403 6838.972157 2065.982691 6834.991933 2055.018298 C 6821.999878 2017.018415 6951.995523 2166.014001 7017.030894 2264.01765 C 7163.998818 2486.009057 7258.998524 2730.004349 7294.970745 2980.007527 C 7321.029952 3167.002995 7307.962799 3350.99452 7255.018299 3533.033481 C 7233.014415 3610.985809 7151.983045 3790.020827 7150.030482 3765.013 Z M 7150.030482 3765.013 " stroke="#1c1c1c" stroke-width="2" stroke-opacity="1" stroke-miterlimit="4"/><path stroke-linecap="butt" transform="matrix(0.052015, 0, 0, -0.052015, -78.52967, 451.829202)" fill-opacity="1" fill="#970c10" fill-rule="nonzero" stroke-linejoin="miter" d="M 4092.016241 3584.025418 C 4047.032191 3553.009704 4076.996525 3470.025771 4133.020067 3470.025771 C 4187.015947 3470.025771 4212.023775 3553.985986 4168.016006 3584.025418 C 4156.000233 3593.037248 4139.027953 3600.021416 4130.016124 3600.021416 C 4121.004294 3600.021416 4104.032014 3593.037248 4092.016241 3584.025418 Z M 4092.016241 3584.025418 " stroke="#1c1c1c" stroke-width="2" stroke-opacity="1" stroke-miterlimit="4"/><path stroke-linecap="butt" transform="matrix(0.052015, 0, 0, -0.052015, -78.52967, 451.829202)" fill-opacity="1" fill="#970c10" fill-rule="nonzero" stroke-linejoin="miter" d="M 6065.982457 3581.021475 C 6039.022067 3552.033422 6048.033897 3498.037542 6081.978455 3481.966446 C 6125.986224 3461.013942 6169.993993 3490.001994 6169.993993 3540.993931 C 6169.993993 3593.037248 6100.978397 3619.997639 6065.982457 3581.021475 Z M 6065.982457 3581.021475 " stroke="#1c1c1c" stroke-width="2" stroke-opacity="1" stroke-miterlimit="4"/><path stroke-linecap="butt" transform="matrix(0.052015, 0, 0, -0.052015, -78.52967, 451.829202)" fill-opacity="1" fill="#970c10" fill-rule="nonzero" stroke-linejoin="miter" d="M 4279.987991 3509.978217 C 4269.023598 3499.013824 4260.011768 3478.962503 4260.011768 3464.994166 C 4260.011768 3436.006114 4292.003764 3400.033893 4317.987873 3400.033893 C 4349.979869 3400.033893 4380.019302 3429.021946 4380.019302 3461.013942 C 4380.019302 3493.982219 4349.003587 3530.029538 4320.015535 3530.029538 C 4308.976043 3530.029538 4291.027482 3521.017708 4279.987991 3509.978217 Z M 4279.987991 3509.978217 " stroke="#1c1c1c" stroke-width="2" stroke-opacity="1" stroke-miterlimit="4"/><path stroke-linecap="butt" transform="matrix(0.052015, 0, 0, -0.052015, -78.52967, 451.829202)" fill-opacity="1" fill="#ffdb15" fill-rule="nonzero" stroke-linejoin="miter" d="M 5881.990933 3514.03354 C 5836.030601 3481.966446 5865.018653 3400.033893 5922.018477 3400.033893 C 5948.978867 3400.033893 5979.994582 3436.982396 5979.994582 3467.99811 C 5979.994582 3521.017708 5926.974983 3546.025536 5881.990933 3514.03354 Z M 5881.990933 3514.03354 " stroke="#1c1c1c" stroke-width="2" stroke-opacity="1" stroke-miterlimit="4"/><path stroke-linecap="butt" transform="matrix(0.052015, 0, 0, -0.052015, -78.52967, 451.829202)" fill-opacity="1" fill="#ffdb15" fill-rule="nonzero" stroke-linejoin="miter" d="M 4476.97157 3452.002112 C 4438.971688 3410.022005 4469.011121 3350.018238 4527.963507 3350.018238 C 4561.006883 3350.018238 4589.994936 3379.006291 4589.994936 3411.974568 C 4589.994936 3461.013942 4510.014946 3489.025713 4476.97157 3452.002112 Z M 4476.97157 3452.002112 " stroke="#1c1c1c" stroke-width="2" stroke-opacity="1" stroke-miterlimit="4"/><path stroke-linecap="butt" transform="matrix(0.052015, 0, 0, -0.052015, -78.52967, 451.829202)" fill-opacity="1" fill="#970c10" fill-rule="nonzero" stroke-linejoin="miter" d="M 5676.971805 3452.002112 C 5641.975866 3414.00223 5670.963919 3340.030127 5720.003292 3340.030127 C 5767.015004 3340.030127 5801.034662 3424.966622 5767.991286 3458.009998 C 5749.967626 3476.033658 5694.995465 3471.978335 5676.971805 3452.002112 Z M 5676.971805 3452.002112 " stroke="#1c1c1c" stroke-width="2" stroke-opacity="1" stroke-miterlimit="4"/><path stroke-linecap="butt" transform="matrix(0.052015, 0, 0, -0.052015, -78.52967, 451.829202)" fill-opacity="1" fill="#970c10" fill-rule="nonzero" stroke-linejoin="miter" d="M 4004.976985 3366.990517 C 4033.965038 3271.990812 4225.992111 3176.014825 4260.011768 3239.998816 C 4279.987991 3277.998698 4263.015711 3296.998639 4180.031779 3328.990635 C 4137.000292 3344.986633 4077.972806 3366.014236 4050.036134 3373.974686 L 3998.969099 3388.994402 Z M 4004.976985 3366.990517 " stroke="#1c1c1c" stroke-width="2" stroke-opacity="1" stroke-miterlimit="4"/><path stroke-linecap="butt" transform="matrix(0.052015, 0, 0, -0.052015, -78.52967, 451.829202)" fill-opacity="1" fill="#970c10" fill-rule="nonzero" stroke-linejoin="miter" d="M 6129.966449 3353.998463 C 6007.030071 3312.994637 5979.994582 3297.974921 5979.994582 3267.034305 C 5979.994582 3236.994873 5998.018241 3220.022593 6030.010237 3220.022593 C 6068.986401 3220.022593 6172.997936 3272.967093 6201.985989 3309.014413 C 6226.993816 3338.002465 6245.993757 3378.030009 6238.033308 3385.014177 C 6236.981928 3386.96674 6188.017653 3372.998404 6129.966449 3353.998463 Z M 6129.966449 3353.998463 " stroke="#1c1c1c" stroke-width="2" stroke-opacity="1" stroke-miterlimit="4"/><path stroke-linecap="butt" transform="matrix(0.052015, 0, 0, -0.052015, -78.52967, 451.829202)" fill-opacity="1" fill="#ffdb15" fill-rule="nonzero" stroke-linejoin="miter" d="M 5812.975336 3265.006644 C 5733.971628 3230.986986 5777.003116 3132.007056 5858.034485 3160.995108 C 5913.006647 3179.995049 5919.990815 3243.002759 5869.97516 3269.96315 C 5847.971275 3281.978923 5852.026599 3281.978923 5812.975336 3265.006644 Z M 5812.975336 3265.006644 " stroke="#1c1c1c" stroke-width="2" stroke-opacity="1" stroke-miterlimit="4"/><path stroke-linecap="butt" transform="matrix(0.052015, 0, 0, -0.052015, -78.52967, 451.829202)" fill-opacity="1" fill="#ffdb15" fill-rule="nonzero" stroke-linejoin="miter" d="M 4352.007531 3258.022476 C 4336.011533 3242.026478 4336.987814 3198.018709 4352.983812 3176.991106 C 4374.011415 3148.979335 4425.003352 3144.99911 4449.034898 3169.030657 C 4475.019007 3195.014766 4475.995289 3224.002818 4450.01118 3249.986927 C 4428.007295 3271.990812 4371.007472 3277.022417 4352.007531 3258.022476 Z M 4352.007531 3258.022476 " stroke="#1c1c1c" stroke-width="2" stroke-opacity="1" stroke-miterlimit="4"/><path stroke-linecap="butt" transform="matrix(0.052015, 0, 0, -0.052015, -78.52967, 451.829202)" fill-opacity="1" fill="#970c10" fill-rule="nonzero" stroke-linejoin="miter" d="M 4567.01477 3211.987045 C 4532.018831 3173.987163 4561.983165 3110.003171 4615.002763 3110.003171 C 4644.967097 3110.003171 4679.963036 3141.995167 4679.963036 3170.006938 C 4679.963036 3220.022593 4601.034427 3249.010646 4567.01477 3211.987045 Z M 4567.01477 3211.987045 " stroke="#1c1c1c" stroke-width="2" stroke-opacity="1" stroke-miterlimit="4"/><path stroke-linecap="butt" transform="matrix(0.052015, 0, 0, -0.052015, -78.52967, 451.829202)" fill-opacity="1" fill="#970c10" fill-rule="nonzero" stroke-linejoin="miter" d="M 5593.987872 3221.975157 C 5571.007706 3207.030539 5559.968215 3172.0346 5568.980045 3147.026772 C 5584.976043 3103.995285 5634.991698 3097.011117 5668.035074 3132.983337 C 5694.995465 3160.995108 5695.971746 3191.034541 5672.015299 3212.963327 C 5653.015358 3230.986986 5612.987814 3234.967211 5593.987872 3221.975157 Z M 5593.987872 3221.975157 " stroke="#1c1c1c" stroke-width="2" stroke-opacity="1" stroke-miterlimit="4"/><path stroke-linecap="butt" transform="matrix(0.052015, 0, 0, -0.052015, -78.52967, 451.829202)" fill-opacity="1" fill="#970c10" fill-rule="nonzero" stroke-linejoin="miter" d="M 4105.984577 3129.003113 C 4181.00806 3047.971743 4323.019478 2992.0233 4475.995289 2983.01147 C 4555.975278 2977.979865 4668.022362 2984.964033 4658.03425 2995.027243 C 4656.006589 2996.979806 4606.967215 3008.019298 4549.967392 3020.035071 C 4400.971806 3049.999405 4279.011709 3084.019062 4175.000174 3125.022888 C 4126.035899 3144.022829 4083.004411 3160.018827 4080.97675 3160.018827 C 4077.972806 3160.018827 4089.012298 3145.975392 4105.984577 3129.003113 Z M 4105.984577 3129.003113 " stroke="#1c1c1c" stroke-width="2" stroke-opacity="1" stroke-miterlimit="4"/><path stroke-linecap="butt" transform="matrix(0.052015, 0, 0, -0.052015, -78.52967, 451.829202)" fill-opacity="1" fill="#ffdb15" fill-rule="nonzero" stroke-linejoin="miter" d="M 6140.029659 3151.006997 C 6077.998231 3113.983396 5792.999114 3034.003407 5615.015475 3003.963974 L 5574.987931 2996.979806 L 5609.98387 2986.991695 C 5628.983811 2982.035188 5691.991521 2980.007527 5749.967626 2983.01147 C 5915.034309 2990.97192 6055.018065 3043.991518 6134.021772 3129.003113 C 6165.037487 3160.995108 6166.013768 3166.026713 6140.029659 3151.006997 Z M 6140.029659 3151.006997 " stroke="#1c1c1c" stroke-width="3" stroke-opacity="1" stroke-miterlimit="4"/></svg>